<svg xmlns="http://www.w3.org/2000/svg" width="113" height="90"><path d="M105.675 82.7a25.069 25.069 0 0 0 0-35.44 24.34 24.34 0 0 0-17.815-7.3 50.549 50.549 0 0 1 4.89-13.2 142.733 142.733 0 0 1 7.86-12.86A94.841 94.841 0 0 1 112.31.01H95.894Q82.967 10.42 76.157 21.37a94.521 94.521 0 0 0-9.781 19.98 61.557 61.557 0 0 0-3.318 15.47c-.235 4.29-.349 7-.349 8.16a24.053 24.053 0 0 0 7.335 17.72 25.389 25.389 0 0 0 35.631 0zm-62.883 0a25.5 25.5 0 0 0 0-35.44 23.769 23.769 0 0 0-17.641-7.3 50.553 50.553 0 0 1 4.891-13.2 97.681 97.681 0 0 1 7.51-12.86A94.841 94.841 0 0 1 49.252.01H32.836Q19.909 10.42 13.1 21.37a87.908 87.908 0 0 0-9.607 19.98A65.667 65.667 0 0 0 .35 56.82c-.235 4.29-.35 7-.35 8.16A24.05 24.05 0 0 0 7.336 82.7 24.3 24.3 0 0 0 25.151 90a23.731 23.731 0 0 0 17.641-7.3z" fill="#f4f4f4" fill-rule="evenodd"/></svg>